<svg width="155" height="60" viewBox="0 0 155 60" fill="none" xmlns="http://www.w3.org/2000/svg">
<g clip-path="url(#clip0_602_356)">
<path d="M80.1296 0.0776495C78.4413 0.399036 77.0435 1.65007 76.4276 3.3821C76.3293 3.70349 76.266 4.05507 76.266 4.69785C76.266 6.07614 76.6548 7.0403 77.6616 8.0023C78.6357 8.9643 79.6753 9.38059 81.0732 9.38059C83.6395 9.38059 85.7515 7.26246 85.7515 4.7302C85.7515 3.89546 85.6226 3.3821 85.2644 2.61207C84.3864 0.750619 82.2111 -0.306288 80.1318 0.0776495H80.1296Z" fill="#383435"/>
<path d="M88.6738 4.66549V9.12392H91.7926V0.207069H88.6738V4.66549Z" fill="#0091D0"/>
<path d="M84.4498 10.7287V11.5311H100.496V9.9263H84.4498V10.7287Z" fill="#383435"/>
<path d="M0 27.6327V43.5748H3.11887V11.6907H0V27.6327Z" fill="#0091D0"/>
<path d="M21.3734 11.7554C17.6387 12.2364 14.2599 13.9361 11.4337 16.8242C9.029 19.2616 7.53509 22.5013 7.17908 25.9352C6.59375 31.5498 8.86738 36.7135 13.4802 40.2746C14.8125 41.3014 16.9878 42.423 18.7089 42.904C21.3079 43.674 24.5884 43.7387 27.3163 43.0636C30.2386 42.3259 33.292 40.4645 35.3057 38.1565C35.6639 37.7402 36.0199 37.3218 36.0854 37.2592C36.2798 37.0673 36.1837 44.925 35.9871 45.887C35.3385 49.1915 33.7135 51.8532 31.2455 53.6823C28.6137 55.6063 25.6258 56.5381 22.5725 56.344C20.3316 56.2167 18.3179 55.5739 16.4658 54.42C14.1922 53.0093 12.6655 51.3722 11.5931 49.1268C10.7806 47.4595 10.4246 46.1437 10.2936 44.4117L10.2281 43.6417H7.10919V44.0256C7.10919 45.309 7.49796 47.33 7.95443 48.6458C8.31262 49.6078 9.05958 51.0831 9.64273 51.9826C12.1107 55.7357 15.8455 58.3025 20.0368 59.1674C22.0505 59.5837 24.5185 59.5513 26.5978 59.1351C29.7494 58.4621 32.8661 56.7301 34.8798 54.4847C37.4461 51.6289 38.9073 48.5185 39.2654 45.0545C39.331 44.4764 39.331 41.269 39.331 34.9815C39.2982 24.7165 39.331 25.4542 38.7456 23.3684C37.706 19.6477 35.3035 16.3756 31.9903 14.2575C29.9765 12.9741 27.5085 12.0768 25.0078 11.7554C24.228 11.6583 22.1488 11.6907 21.3691 11.7554H21.3734ZM25.1082 14.9951C27.0237 15.2518 28.4542 15.7652 30.0442 16.7272C32.7066 18.3621 34.4932 20.6075 35.5001 23.5928C35.9871 25.0358 36.1182 25.8705 36.1182 27.6672C36.1182 29.3346 35.9893 30.2966 35.5329 31.7094C35.2074 32.7037 34.3644 34.3711 33.7135 35.2705C32.2196 37.3239 29.8804 38.9589 27.1853 39.8584C25.3332 40.4364 23.0596 40.596 21.0786 40.2423C18.2851 39.7613 15.2973 38.094 13.5435 36.0405C10.263 32.1904 9.41777 27.2833 11.2699 22.8896C12.0496 21.0281 12.9582 19.7146 14.356 18.4312C16.5008 16.4101 18.936 15.2885 21.8911 14.9347C22.4436 14.8377 24.3263 14.9024 25.106 14.9995L25.1082 14.9951Z" fill="#0091D0"/>
<path d="M57.2645 11.7878C53.1387 12.3658 49.2423 14.5789 46.8049 17.7215C45.2455 19.7426 44.0442 22.277 43.5572 24.5548C43.2645 26.0625 43.2317 26.9598 43.2317 35.3654V43.5446H46.3506L46.3834 34.9168C46.4161 27.3135 46.4161 26.1919 46.545 25.5815C47.0648 22.8227 48.4932 20.1611 50.4742 18.3643C52.2935 16.697 54.3727 15.6056 56.7752 15.0922C57.9131 14.8355 60.6083 14.8355 61.7113 15.0599C64.2776 15.5732 66.324 16.5999 68.174 18.2996C70.1222 20.0963 71.4217 22.3417 72.0398 25.0034C72.2014 25.7411 72.2014 25.9007 72.2342 34.6579L72.2669 43.5748H75.4819V35.0095C75.4819 25.7066 75.4819 25.7389 75.0276 23.9745C74.8005 23.0773 74.2479 21.6968 73.7281 20.6701C71.4217 16.1146 66.9727 12.8425 61.8401 11.8805C60.9315 11.6885 58.267 11.6562 57.2601 11.7834L57.2645 11.7878Z" fill="#0091D0"/>
<path d="M79.3827 27.6327V43.5748H82.6304V11.6907H79.3827V27.6327Z" fill="#383435"/>
<path d="M136.907 11.7554C133.14 12.2364 129.665 13.9684 127 16.6948C124.694 19.0696 123.134 22.5013 122.778 25.9007C122.453 28.9485 122.973 31.8345 124.338 34.6256C125.93 37.93 128.365 40.3027 131.807 41.9398C135.966 43.8962 140.707 44.0256 144.962 42.2288C149.12 40.4968 152.595 36.968 154.056 32.9906L154.251 32.4126H152.464C151.23 32.4126 150.678 32.4449 150.678 32.5096C150.678 32.7016 149.898 34.1446 149.378 34.947C148.664 36.0384 147.17 37.5138 146.13 38.2191C144.311 39.4378 142.33 40.1107 139.958 40.3372C136.451 40.6262 132.91 39.4399 130.051 37.0004C127.906 35.1713 126.511 32.6067 125.862 29.4295L125.797 29.1728H154.965L154.932 27.4731C154.9 25.6764 154.803 24.9711 154.38 23.4633C153.666 20.7693 152.333 18.4592 150.352 16.4705C147.72 13.8088 144.377 12.204 140.576 11.723C139.829 11.6583 137.685 11.6907 136.907 11.7554ZM141.26 15.0599C144.053 15.6056 146.814 17.2082 148.699 19.3587C150.193 21.0907 151.038 22.758 151.558 25.0034C151.656 25.5168 151.752 25.9654 151.752 26.0301C151.752 26.0948 148.373 26.1272 138.792 26.1272H125.832L125.897 25.8382C126.19 24.1061 127.035 22.0527 128.042 20.545C128.627 19.6477 130.121 18.14 131.224 17.3376C132.102 16.697 134.05 15.7026 134.992 15.4136C135.61 15.2216 136.617 15.0297 137.331 14.9326C137.949 14.8355 140.611 14.9326 141.26 15.0599Z" fill="#0091D0"/>
<path d="M84.4498 13.4227V14.2251H100.496V12.6203H84.4498V13.4227Z" fill="#383435"/>
<path d="M84.4498 16.0542V16.8566H100.496V15.2518H84.4498V16.0542Z" fill="#383435"/>
<path d="M84.4498 19.6779V21.218H88.6716V24.7791C88.6716 26.7354 88.7043 28.7565 88.7699 29.2375C89.0625 32.1235 90.1349 34.8521 91.8887 37.2247C92.4413 37.9624 93.7736 39.3105 94.5206 39.9188C98.7096 43.3181 104.622 44.3772 109.755 42.7099C113.166 41.5861 116.25 39.2781 118.233 36.3274C118.818 35.4603 119.629 33.8577 119.987 32.9281C120.54 31.3556 120.865 29.6236 120.865 28.3079V27.6349H117.746V28.1159C117.746 28.7889 117.552 30.137 117.292 30.9717C116.643 33.1847 115.213 35.4948 113.557 36.9378C111.803 38.4779 109.497 39.6642 107.385 40.0805C103.943 40.7535 100.629 40.0805 97.5761 38.1242C96.3748 37.3541 94.9137 35.8788 94.1012 34.6925C92.8344 32.8008 92.153 30.9394 91.9259 28.7587C91.8931 28.3424 91.8603 26.4809 91.8603 24.5893V21.2525H100.566V18.1723H84.5196V19.6801H84.4541L84.4498 19.6779Z" fill="#0091D0"/>
<path d="M69.574 46.1416C69.1852 46.5255 69.3141 47.1359 69.8011 47.3279C70.0283 47.425 70.1265 47.425 70.3537 47.3279C71.1006 47.0065 70.8735 45.9172 70.0938 45.9172C69.8994 45.9496 69.7356 46.0143 69.574 46.1416Z" fill="#383435"/>
<path d="M81.202 46.1416C80.8133 46.4953 80.9421 47.1359 81.3964 47.3279C81.9162 47.5199 82.436 47.2006 82.436 46.6549C82.436 46.0445 81.6563 45.7253 81.202 46.1416Z" fill="#383435"/>
<path d="M105.336 46.1416C105.076 46.3982 105.076 46.8792 105.303 47.1683C105.725 47.6493 106.57 47.3279 106.57 46.6873C106.57 46.0467 105.758 45.6929 105.336 46.1416Z" fill="#383435"/>
<path d="M127.911 46.1416C127.749 46.3012 127.684 46.3982 127.684 46.6549C127.684 47.3602 128.496 47.6816 128.95 47.1359C129.145 46.9116 129.178 46.8145 129.145 46.5902C129.047 45.9798 128.365 45.7555 127.911 46.1416Z" fill="#383435"/>
<path d="M53.3331 47.3279L52.8133 47.4875L52.7805 48.3848L52.7478 49.2821H51.4483V50.2441H52.7478L52.7805 52.8432C52.8133 55.3776 52.8133 55.4726 52.9749 55.7939C53.2021 56.2426 53.5603 56.4993 54.0473 56.6287C54.4688 56.7257 55.1525 56.6934 55.5085 56.564C55.7029 56.4993 55.7356 56.4669 55.7356 56.0183V55.5373L55.4429 55.6645C55.0848 55.7918 54.6305 55.7616 54.305 55.5675C53.9163 55.3108 53.8835 55.0865 53.8835 52.5844V50.2743H55.7684V49.3123H53.9163L53.8835 48.2532L53.8507 47.1942L53.3309 47.3214L53.3331 47.3279Z" fill="#383435"/>
<path d="M123.916 47.3279L123.396 47.4875L123.364 48.3848L123.331 49.2821H122.031V50.2441H123.331V52.6491C123.331 54.5731 123.364 55.1512 123.46 55.4725C123.72 56.3396 124.239 56.6589 125.279 56.6589C126.22 56.6589 126.319 56.5942 126.319 55.9859V55.5049L125.96 55.6322C125.342 55.8565 124.694 55.5998 124.532 55.0217C124.499 54.8621 124.467 53.7707 124.467 52.4873V50.2419H126.351V49.2799H124.499L124.467 48.2209L124.434 47.1618L123.914 47.3214L123.916 47.3279Z" fill="#383435"/>
<path d="M132.231 47.3279L131.711 47.4875L131.678 48.3848L131.646 49.2821H130.346V50.2441L130.964 50.2764L131.582 50.3088L131.615 52.9079C131.648 54.64 131.681 55.5696 131.744 55.699C131.938 56.1477 132.329 56.4691 132.816 56.6287C133.303 56.7559 133.985 56.7559 134.376 56.5963C134.57 56.5316 134.603 56.4993 134.603 56.0506V55.5696L134.31 55.6969C133.952 55.8241 133.369 55.7939 133.142 55.5696C132.784 55.2806 132.753 55.0563 132.753 52.6189V50.3088H134.638V49.3468H132.786L132.753 48.2877L132.72 47.2287L132.233 47.3257L132.231 47.3279Z" fill="#383435"/>
<path d="M145.222 47.3279L144.702 47.4875L144.669 48.3848L144.637 49.2821H143.435V50.2441H144.669V52.6189C144.669 55.121 144.702 55.5373 145.027 56.0183C145.32 56.4993 145.774 56.6589 146.587 56.6589C147.528 56.6589 147.627 56.5942 147.627 55.9859V55.5049L147.334 55.6322C146.781 55.8565 146.196 55.6969 145.938 55.2482C145.809 55.0239 145.809 54.7349 145.777 52.6189L145.744 50.2441H147.629V49.2821H145.777L145.744 48.223L145.711 47.164L145.224 47.3236L145.222 47.3279Z" fill="#383435"/>
<path d="M59.7653 49.2541C59.311 49.3813 58.8239 49.8321 58.564 50.3778L58.3696 50.7618L58.3369 50.0241L58.3041 49.2864H57.199V56.5359H58.3041L58.3369 54.2258C58.3696 52.1077 58.3696 51.9157 58.5312 51.5318C58.7256 51.0184 59.0511 50.6022 59.4093 50.3778C59.6692 50.2182 60.4161 50.1859 60.7743 50.3131L60.9687 50.3778V49.2239L60.676 49.1591C60.2872 49.1268 60.2217 49.1268 59.7674 49.2562L59.7653 49.2541Z" fill="#383435"/>
<path d="M63.6638 49.2541C63.4367 49.3188 63.0152 49.446 62.7858 49.5754L62.3643 49.7674V50.9861L62.6242 50.7941C63.3057 50.2808 64.378 49.9917 65.125 50.1535C65.7431 50.2506 66.2629 51.0206 66.1974 51.6936L66.1646 52.015L64.8323 52.2069C63.3384 52.3989 62.8186 52.5909 62.3316 52.977C61.8117 53.3932 61.6174 53.8742 61.6174 54.6443C61.6174 55.19 61.6501 55.3496 61.8445 55.7033C62.6242 57.0816 64.9634 57.114 65.9375 55.8004L66.1646 55.479V56.633H67.3986L67.3659 53.8742C67.3331 51.2751 67.3331 51.0832 67.1715 50.6992C66.7499 49.6725 66.1646 49.3209 64.8323 49.2886C64.3453 49.1289 63.9543 49.1613 63.6638 49.2562V49.2541ZM66.228 53.4558C66.228 54.1935 66.1297 54.5472 65.8064 54.9635C65.2539 55.6688 64.2142 55.9579 63.5 55.5739C63.013 55.3172 62.8514 54.9635 62.8819 54.3876C62.9147 53.8095 63.1091 53.5529 63.5634 53.3609C63.8888 53.2336 65.5116 52.9122 66.0642 52.9122H66.2913V53.458H66.2258L66.228 53.4558Z" fill="#383435"/>
<path d="M75.5824 49.2864C75.0953 49.4784 74.6738 49.7674 74.3811 50.1837L74.154 50.5051V49.2864H72.92V56.5359H74.154V54.1935C74.154 52.8454 74.1868 51.7238 74.2195 51.5641C74.6083 50.1859 76.3949 49.5754 77.3056 50.5051C77.7927 51.0184 77.8254 51.1457 77.8254 53.9368L77.8582 56.5036H78.9633V53.9044C78.9633 51.081 78.9306 50.792 78.5418 50.119C78.2819 49.6703 77.8931 49.3813 77.4039 49.2217C76.8513 49.0944 76.0389 49.1246 75.5846 49.2864H75.5824Z" fill="#383435"/>
<path d="M87.3742 49.1893C86.8872 49.349 86.4657 49.6056 86.1075 50.0564L85.6859 50.5051V49.2864H84.5808V56.5359H85.6859L85.7187 54.1611C85.7515 51.9157 85.7515 51.7863 85.9131 51.4024C86.173 50.792 86.4329 50.5051 86.9199 50.2786C87.6341 49.9249 88.4466 50.0219 88.9337 50.5029C89.4207 51.0163 89.4535 51.1435 89.4535 53.9346L89.4862 56.5014H90.5914L90.5586 53.7427C90.5259 51.1435 90.5259 50.9516 90.3642 50.5676C90.1371 49.9896 89.8117 49.638 89.3574 49.3813C88.9992 49.1893 88.8376 49.157 88.2522 49.1246C87.894 49.157 87.4725 49.157 87.3742 49.1893Z" fill="#383435"/>
<path d="M94.5839 49.2541C93.7387 49.5107 93.1228 50.0564 92.699 50.9214C92.4064 51.562 92.2775 52.2048 92.2775 53.1668C92.2775 54.2905 92.5374 55.1555 93.1228 55.7961C94.2279 57.0148 96.4688 56.9824 97.4756 55.7314L97.8011 55.3474V56.1175C97.8011 57.4332 97.4123 58.2658 96.5671 58.6843C96.0472 58.9409 95.2675 59.038 94.6188 58.9409C94.099 58.8762 93.0922 58.557 92.8978 58.3952C92.7995 58.3305 92.7995 58.4276 92.7995 58.9086V59.519L93.1577 59.6463C94.3917 60.0949 95.8201 60.1273 96.958 59.6786C97.5106 59.4866 98.192 58.8762 98.4847 58.3629C98.939 57.5281 98.9717 57.2715 99.0045 53.1344L99.0373 49.349H97.8032V50.311L97.3817 49.8947C97.0563 49.5733 96.8619 49.446 96.5365 49.349C95.9839 49.1246 95.0426 49.0923 94.5883 49.2519L94.5839 49.2541ZM96.5343 50.2484C97.0213 50.4727 97.3468 50.7618 97.5739 51.2428C97.7683 51.6267 97.7683 51.7238 97.7683 52.7505C97.7683 54.0662 97.67 54.4825 97.183 55.0282C96.7614 55.4769 96.3377 55.7012 95.7873 55.7659C95.1059 55.8306 94.6494 55.6688 94.1624 55.1878C93.8369 54.8664 93.7081 54.6745 93.577 54.2258C93.2844 53.3285 93.3827 52.1077 93.7714 51.3075C93.9986 50.8912 94.5839 50.3455 94.9399 50.2161C95.3942 50.0564 96.1739 50.0888 96.5321 50.2484H96.5343Z" fill="#383435"/>
<path d="M111.508 49.1893C111.021 49.349 110.6 49.6056 110.242 50.0564L109.82 50.5051V49.2864H108.682V56.5359H109.787L109.82 54.1611C109.853 51.5944 109.853 51.4994 110.34 50.8567C110.794 50.2161 111.834 49.8947 112.581 50.1837C112.906 50.311 113.328 50.7941 113.459 51.1781C113.524 51.37 113.557 52.3018 113.588 54.0015L113.62 56.5359H114.726L114.693 53.7772C114.66 51.1781 114.66 50.9861 114.498 50.6022C114.271 50.0241 113.946 49.6725 113.492 49.4158C113.133 49.2239 112.972 49.1915 112.386 49.1591C111.998 49.1591 111.607 49.1591 111.508 49.1915V49.1893Z" fill="#383435"/>
<path d="M118.198 49.2541C117.257 49.5107 116.573 50.1837 116.444 50.9214C116.316 51.851 116.77 52.5564 117.873 53.0697C119.887 53.967 120.048 54.0964 120.048 54.7694C120.048 55.3798 119.496 55.7314 118.521 55.7314C118.002 55.7314 117.189 55.5071 116.768 55.2504C116.639 55.1533 116.475 55.0908 116.475 55.0908C116.442 55.0908 116.442 55.3475 116.442 55.6688V56.2793L116.896 56.4389C117.515 56.6632 119.072 56.6955 119.723 56.4712C120.697 56.1498 121.249 55.4769 121.249 54.6098C121.249 53.9692 121.184 53.7427 120.861 53.3911C120.535 53.0072 120.146 52.7807 119.301 52.4291C118.229 51.9804 118.002 51.851 117.84 51.562C117.613 51.1781 117.646 50.7596 117.938 50.4382C118.231 50.1168 118.587 49.9896 119.238 49.9896C119.692 49.9896 120.699 50.2463 120.797 50.3735C120.926 50.5978 120.992 50.4059 120.992 49.8925L120.959 49.3145L120.633 49.1872C120.081 49.1225 118.718 49.1225 118.198 49.2519V49.2541Z" fill="#383435"/>
<path d="M151.069 49.254C150.549 49.4137 150.062 49.735 149.673 50.1513C148.959 50.889 148.699 51.6914 148.699 53.0071C148.699 54.7715 149.38 55.9902 150.647 56.4712C151.621 56.825 153.115 56.7279 154.122 56.2469L154.544 56.0549V54.9635L154.218 55.1555C153.406 55.6688 152.27 55.8932 151.425 55.6365C150.579 55.3798 150.029 54.6745 149.865 53.5831L149.8 53.1991H154.996L154.963 52.3644C154.897 50.8567 154.41 49.927 153.403 49.446C152.916 49.2217 152.785 49.1893 152.137 49.157C151.65 49.1246 151.259 49.157 151.064 49.254H151.069ZM152.694 50.216C153.312 50.4727 153.668 51.0184 153.733 51.7885L153.766 52.2371H149.804L149.837 51.9804C149.966 51.2428 150.649 50.3757 151.232 50.1837C151.687 50.0564 152.37 50.0866 152.694 50.216Z" fill="#383435"/>
<path d="M69.5412 52.9101V56.5359H70.6463V49.2864H69.5412V52.9122V52.9101Z" fill="#383435"/>
<path d="M81.1693 52.9101V56.5359H82.2744V49.2864H81.1693V52.9122V52.9101Z" fill="#383435"/>
<path d="M105.271 52.9101V56.5359H106.376V49.2864H105.271V52.9122V52.9101Z" fill="#383435"/>
<path d="M127.78 52.9101V56.5359H128.885V49.2864H127.78V52.9122V52.9101Z" fill="#383435"/>
<path d="M135.966 51.9481C135.998 54.8988 136.031 55.1555 136.551 55.8608C137.104 56.5985 138.305 56.9199 139.377 56.5985C139.766 56.5014 139.93 56.3742 140.351 55.9579L140.871 55.4445V56.5359H141.976V49.2864H140.871V51.4994C140.871 53.9044 140.806 54.3553 140.45 54.8988C139.801 55.8285 138.469 56.0226 137.689 55.2525C137.202 54.7715 137.136 54.4825 137.104 51.7238L137.071 49.2864H135.966V51.9481Z" fill="#383435"/>
</g>
<defs>
<clipPath id="clip0_602_356">
<rect width="155" height="60" fill="white"/>
</clipPath>
</defs>
</svg>
