<?xml version="1.0" encoding="utf-8"?>
<!-- Generator: Adobe Illustrator 27.7.0, SVG Export Plug-In . SVG Version: 6.00 Build 0)  -->
<svg version="1.1" id="Layer_1" xmlns="http://www.w3.org/2000/svg" xmlns:xlink="http://www.w3.org/1999/xlink" x="0px" y="0px"
	 viewBox="0 0 500 227.2" style="enable-background:new 0 0 500 227.2;" xml:space="preserve">
<style type="text/css">
	.st0{fill:#373435;}
	.st1{fill:#078FCB;}
</style>
<g>
	<path class="st0" d="M258.1,20.4c-5.2,1-9.5,4.9-11.4,10.3c-0.3,1-0.5,2.1-0.5,4.1c0,4.3,1.2,7.3,4.3,10.3c3,3,6.2,4.3,10.5,4.3
		c7.9,0,14.4-6.6,14.4-14.5c0-2.6-0.4-4.2-1.5-6.6C271.2,22.5,264.5,19.2,258.1,20.4L258.1,20.4z"/>
	<path class="st1" d="M284.4,34.7v13.9h4.8h4.8V34.7V20.8h-4.8h-4.8V34.7z"/>
	<path class="st0" d="M271.4,53.6v2.5h24.7h24.7v-2.5v-2.5h-24.7h-24.7V53.6z"/>
	<path class="st1" d="M11.4,106.3v49.7h4.8h4.8v-49.7V56.6h-4.8h-4.8L11.4,106.3z"/>
	<path class="st1" d="M77.2,56.8c-11.5,1.5-21.9,6.8-30.6,15.8c-7.4,7.6-12,17.7-13.1,28.4c-1.8,17.5,5.2,33.6,19.4,44.7
		c4.1,3.2,10.8,6.7,16.1,8.2c8,2.4,18.1,2.6,26.5,0.5c9-2.3,18.4-8.1,24.6-15.3c1.1-1.3,2.2-2.6,2.4-2.8c0.6-0.6,0.3,23.9-0.3,26.9
		c-2,10.3-7,18.6-14.6,24.3c-8.1,6-17.3,8.9-26.7,8.3c-6.9-0.4-13.1-2.4-18.8-6c-7-4.4-11.7-9.5-15-16.5c-2.5-5.2-3.6-9.3-4-14.7
		l-0.2-2.4h-4.8h-4.8v1.2c0,4,1.2,10.3,2.6,14.4c1.1,3,3.4,7.6,5.2,10.4c7.6,11.7,19.1,19.7,32,22.4c6.2,1.3,13.8,1.2,20.2-0.1
		c9.7-2.1,19.3-7.5,25.5-14.5c7.9-8.9,12.4-18.6,13.5-29.4c0.2-1.8,0.2-11.8,0.2-31.4c-0.1-32,0-29.7-1.8-36.2
		c-3.2-11.6-10.6-21.8-20.8-28.4c-6.2-4-13.8-6.8-21.5-7.8C86,56.5,79.6,56.6,77.2,56.8L77.2,56.8z M88.7,66.9
		c5.9,0.8,10.3,2.4,15.2,5.4c8.2,5.1,13.7,12.1,16.8,21.4c1.5,4.5,1.9,7.1,1.9,12.7c0,5.2-0.4,8.2-1.8,12.6c-1,3.1-3.6,8.3-5.6,11.1
		c-4.6,6.4-11.8,11.5-20.1,14.3c-5.7,1.8-12.7,2.3-18.8,1.2c-8.6-1.5-17.8-6.7-23.2-13.1c-10.1-12-12.7-27.3-7-41
		c2.4-5.8,5.2-9.9,9.5-13.9c6.6-6.3,14.1-9.8,23.2-10.9C80.5,66.4,86.3,66.6,88.7,66.9L88.7,66.9z"/>
	<path class="st1" d="M187.7,56.9c-12.7,1.8-24.7,8.7-32.2,18.5c-4.8,6.3-8.5,14.2-10,21.3c-0.9,4.7-1,7.5-1,33.7v25.5h4.8h4.8
		l0.1-26.9c0.1-23.7,0.1-27.2,0.5-29.1c1.6-8.6,6-16.9,12.1-22.5c5.6-5.2,12-8.6,19.4-10.2c3.5-0.8,11.8-0.8,15.2-0.1
		c7.9,1.6,14.2,4.8,19.9,10.1c6,5.6,10,12.6,11.9,20.9c0.5,2.3,0.5,2.8,0.6,30.1l0.1,27.8h4.9h5v-26.7c0-29,0-28.9-1.4-34.4
		c-0.7-2.8-2.4-7.1-4-10.3c-7.1-14.2-20.8-24.4-36.6-27.4C199,56.6,190.8,56.5,187.7,56.9L187.7,56.9z"/>
	<path class="st0" d="M255.8,106.3v49.7h5h5v-49.7V56.6h-5h-5V106.3z"/>
	<path class="st1" d="M432.9,56.8c-11.6,1.5-22.3,6.9-30.5,15.4c-7.1,7.4-11.9,18.1-13,28.7c-1,9.5,0.6,18.5,4.8,27.2
		c4.9,10.3,12.4,17.7,23,22.8c12.8,6.1,27.4,6.5,40.5,0.9c12.8-5.4,23.5-16.4,28-28.8l0.6-1.8h-5.5c-3.8,0-5.5,0.1-5.5,0.3
		c0,0.6-2.4,5.1-4,7.6c-2.2,3.4-6.8,8-10,10.2c-5.6,3.8-11.7,5.9-19,6.6c-10.8,0.9-21.7-2.8-30.5-10.4c-6.6-5.7-10.9-13.7-12.9-23.6
		l-0.2-0.8h44.9h44.9l-0.1-5.3c-0.1-5.6-0.4-7.8-1.7-12.5c-2.2-8.4-6.3-15.6-12.4-21.8c-8.1-8.3-18.4-13.3-30.1-14.8
		C441.9,56.5,435.3,56.6,432.9,56.8L432.9,56.8z M446.3,67.1c8.6,1.7,17.1,6.7,22.9,13.4c4.6,5.4,7.2,10.6,8.8,17.6
		c0.3,1.6,0.6,3,0.6,3.2c0,0.2-10.4,0.3-39.9,0.3h-39.9l0.2-0.9c0.9-5.4,3.5-11.8,6.6-16.5c1.8-2.8,6.4-7.5,9.8-10
		c2.7-2,8.7-5.1,11.6-6c1.9-0.6,5-1.2,7.2-1.5C436.1,66.4,444.3,66.7,446.3,67.1L446.3,67.1z"/>
	<path class="st0" d="M271.4,62v2.5h24.7h24.7V62v-2.5h-24.7h-24.7V62z"/>
	<path class="st0" d="M271.4,70.2v2.5h24.7h24.7v-2.5v-2.5h-24.7h-24.7V70.2z"/>
	<path class="st1" d="M271.4,81.5v4.8h6.5h6.5v11.1c0,6.1,0.1,12.4,0.3,13.9c0.9,9,4.2,17.5,9.6,24.9c1.7,2.3,5.8,6.5,8.1,8.4
		c12.9,10.6,31.1,13.9,46.9,8.7c10.5-3.5,20-10.7,26.1-19.9c1.8-2.7,4.3-7.7,5.4-10.6c1.7-4.9,2.7-10.3,2.7-14.4v-2.1h-4.8h-4.8v1.5
		c0,2.1-0.6,6.3-1.4,8.9c-2,6.9-6.4,14.1-11.5,18.6c-5.4,4.8-12.5,8.5-19,9.8c-10.6,2.1-20.8,0-30.2-6.1c-3.7-2.4-8.2-7-10.7-10.7
		c-3.9-5.9-6-11.7-6.7-18.5c-0.1-1.3-0.2-7.1-0.2-13V86.4h13.4h13.4v-4.8v-4.8h-24.7h-24.7V81.5z"/>
	<g>
		<path class="st0" d="M225.6,164c-1.2,1.2-0.8,3.1,0.7,3.7c0.7,0.3,1,0.3,1.7,0c2.3-1,1.6-4.4-0.8-4.4
			C226.6,163.4,226.1,163.6,225.6,164z"/>
		<path class="st0" d="M261.4,164c-1.2,1.1-0.8,3.1,0.6,3.7c1.6,0.6,3.2-0.4,3.2-2.1C265.2,163.7,262.8,162.7,261.4,164L261.4,164z"
			/>
		<path class="st0" d="M335.7,164c-0.8,0.8-0.8,2.3-0.1,3.2c1.3,1.5,3.9,0.5,3.9-1.5C339.5,163.7,337,162.6,335.7,164L335.7,164z"/>
		<path class="st0" d="M405.2,164c-0.5,0.5-0.7,0.8-0.7,1.6c0,2.2,2.5,3.2,3.9,1.5c0.6-0.7,0.7-1,0.6-1.7
			C408.7,163.5,406.6,162.8,405.2,164L405.2,164z"/>
		<path class="st0" d="M175.6,167.7l-1.6,0.5l-0.1,2.8l-0.1,2.8h-2h-2v1.5v1.5h2h2l0.1,8.1c0.1,7.9,0.1,8.2,0.6,9.2
			c0.7,1.4,1.8,2.2,3.3,2.6c1.3,0.3,3.4,0.2,4.5-0.2c0.6-0.2,0.7-0.3,0.7-1.7v-1.5l-0.9,0.4c-1.1,0.4-2.5,0.3-3.5-0.3
			c-1.2-0.8-1.3-1.5-1.3-9.3v-7.2h2.9h2.9v-1.5v-1.5h-2.9h-2.8l-0.1-3.3l-0.1-3.3L175.6,167.7z"/>
		<path class="st0" d="M392.9,167.7l-1.6,0.5l-0.1,2.8l-0.1,2.8h-2h-2v1.5v1.5h2h2v7.5c0,6,0.1,7.8,0.4,8.8c0.8,2.7,2.4,3.7,5.6,3.7
			c2.9,0,3.2-0.2,3.2-2.1v-1.5l-1.1,0.4c-1.9,0.7-3.9-0.1-4.4-1.9c-0.1-0.5-0.2-3.9-0.2-7.9v-7h2.9h2.9v-1.5v-1.5h-2.9h-2.8
			l-0.1-3.3l-0.1-3.3L392.9,167.7z"/>
		<path class="st0" d="M418.5,167.7l-1.6,0.5l-0.1,2.8l-0.1,2.8h-2h-2v1.5v1.5l1.9,0.1l1.9,0.1l0.1,8.1c0.1,5.4,0.2,8.3,0.4,8.7
			c0.6,1.4,1.8,2.4,3.3,2.9c1.5,0.4,3.6,0.4,4.8-0.1c0.6-0.2,0.7-0.3,0.7-1.7v-1.5l-0.9,0.4c-1.1,0.4-2.9,0.3-3.6-0.4
			c-1.1-0.9-1.2-1.6-1.2-9.2v-7.2h2.9h2.9v-1.5v-1.5h-2.9h-2.8l-0.1-3.3l-0.1-3.3L418.5,167.7z"/>
		<path class="st0" d="M458.5,167.7l-1.6,0.5l-0.1,2.8l-0.1,2.8h-1.8H453v1.5v1.5h1.9h1.9v7.4c0,7.8,0.1,9.1,1.1,10.6
			c0.9,1.5,2.3,2,4.8,2c2.9,0,3.2-0.2,3.2-2.1v-1.5l-0.9,0.4c-1.7,0.7-3.5,0.2-4.3-1.2c-0.4-0.7-0.4-1.6-0.5-8.2l-0.1-7.4h2.9h2.9
			v-1.5v-1.5h-2.9h-2.8l-0.1-3.3l-0.1-3.3L458.5,167.7z"/>
		<path class="st0" d="M195.4,173.7c-1.4,0.4-2.9,1.8-3.7,3.5l-0.6,1.2l-0.1-2.3l-0.1-2.3h-1.7h-1.7v11.3v11.3h1.7h1.7l0.1-7.2
			c0.1-6.6,0.1-7.2,0.6-8.4c0.6-1.6,1.6-2.9,2.7-3.6c0.8-0.5,3.1-0.6,4.2-0.2l0.6,0.2v-1.8v-1.8l-0.9-0.2
			C197,173.3,196.8,173.3,195.4,173.7z"/>
		<path class="st0" d="M207.4,173.7c-0.7,0.2-2,0.6-2.7,1l-1.3,0.6v1.9v1.9l0.8-0.6c2.1-1.6,5.4-2.5,7.7-2c1.9,0.3,3.5,2.7,3.3,4.8
			l-0.1,1l-4.1,0.6c-4.6,0.6-6.2,1.2-7.7,2.4c-1.6,1.3-2.2,2.8-2.2,5.2c0,1.7,0.1,2.2,0.7,3.3c2.4,4.3,9.6,4.4,12.6,0.3l0.7-1v1.8
			v1.8h1.9h1.9l-0.1-8.6c-0.1-8.1-0.1-8.7-0.6-9.9c-1.3-3.2-3.1-4.3-7.2-4.4C209.5,173.3,208.3,173.4,207.4,173.7L207.4,173.7z
			 M215.3,186.8c0,2.3-0.3,3.4-1.3,4.7c-1.7,2.2-4.9,3.1-7.1,1.9c-1.5-0.8-2-1.9-1.9-3.7c0.1-1.8,0.7-2.6,2.1-3.2
			c1-0.4,6-1.4,7.7-1.4l0.7,0V186.8z"/>
		<path class="st0" d="M244.1,173.8c-1.5,0.6-2.8,1.5-3.7,2.8l-0.7,1v-1.9v-1.9h-1.9h-1.9v11.3v11.3h1.9h1.9v-7.3
			c0-4.2,0.1-7.7,0.2-8.2c1.2-4.3,6.7-6.2,9.5-3.3c1.5,1.6,1.6,2,1.6,10.7l0.1,8h1.7h1.7v-8.1c0-8.8-0.1-9.7-1.3-11.8
			c-0.8-1.4-2-2.3-3.5-2.8C248,173.2,245.5,173.3,244.1,173.8L244.1,173.8z"/>
		<path class="st0" d="M280.4,173.5c-1.5,0.5-2.8,1.3-3.9,2.7l-1.3,1.4v-1.9v-1.9h-1.7h-1.7v11.3v11.3h1.7h1.7l0.1-7.4
			c0.1-7,0.1-7.4,0.6-8.6c0.8-1.9,1.6-2.8,3.1-3.5c2.2-1.1,4.7-0.8,6.2,0.7c1.5,1.6,1.6,2,1.6,10.7l0.1,8h1.7h1.7l-0.1-8.6
			c-0.1-8.1-0.1-8.7-0.6-9.9c-0.7-1.8-1.7-2.9-3.1-3.7c-1.1-0.6-1.6-0.7-3.4-0.8C282,173.4,280.7,173.4,280.4,173.5L280.4,173.5z"/>
		<path class="st0" d="M302.6,173.7c-2.6,0.8-4.5,2.5-5.8,5.2c-0.9,2-1.3,4-1.3,7c0,3.5,0.8,6.2,2.6,8.2c3.4,3.8,10.3,3.7,13.4-0.2
			l1-1.2v2.4c0,4.1-1.2,6.7-3.8,8c-1.6,0.8-4,1.1-6,0.8c-1.6-0.2-4.7-1.2-5.3-1.7c-0.3-0.2-0.3,0.1-0.3,1.6v1.9l1.1,0.4
			c3.8,1.4,8.2,1.5,11.7,0.1c1.7-0.6,3.8-2.5,4.7-4.1c1.4-2.6,1.5-3.4,1.6-16.3l0.1-11.8h-1.9h-1.9v1.5v1.5l-1.3-1.3
			c-1-1-1.6-1.4-2.6-1.7C306.9,173.3,304,173.2,302.6,173.7L302.6,173.7z M308.6,176.8c1.5,0.7,2.5,1.6,3.2,3.1
			c0.6,1.2,0.6,1.5,0.6,4.7c0,4.1-0.3,5.4-1.8,7.1c-1.3,1.4-2.6,2.1-4.3,2.3c-2.1,0.2-3.5-0.3-5-1.8c-1-1-1.4-1.6-1.8-3
			c-0.9-2.8-0.6-6.6,0.6-9.1c0.7-1.3,2.5-3,3.6-3.4C305.1,176.2,307.5,176.3,308.6,176.8L308.6,176.8z"/>
		<path class="st0" d="M354.7,173.5c-1.5,0.5-2.8,1.3-3.9,2.7l-1.3,1.4v-1.9v-1.9h-1.7H346v11.3v11.3h1.7h1.7l0.1-7.4
			c0.1-8,0.1-8.3,1.6-10.3c1.4-2,4.6-3,6.9-2.1c1,0.4,2.3,1.9,2.7,3.1c0.2,0.6,0.3,3.5,0.4,8.8l0.1,7.9h1.7h1.7l-0.1-8.6
			c-0.1-8.1-0.1-8.7-0.6-9.9c-0.7-1.8-1.7-2.9-3.1-3.7c-1.1-0.6-1.6-0.7-3.4-0.8C356.2,173.4,355,173.4,354.7,173.5L354.7,173.5z"/>
		<path class="st0" d="M375.3,173.7c-2.9,0.8-5,2.9-5.4,5.2c-0.4,2.9,1,5.1,4.4,6.7c6.2,2.8,6.7,3.2,6.7,5.3c0,1.9-1.7,3-4.7,3
			c-1.6,0-4.1-0.7-5.4-1.5c-0.4-0.3-0.9-0.5-0.9-0.5c-0.1,0-0.1,0.8-0.1,1.8v1.9l1.4,0.5c1.9,0.7,6.7,0.8,8.7,0.1
			c3-1,4.7-3.1,4.7-5.8c0-2-0.2-2.7-1.2-3.8c-1-1.2-2.2-1.9-4.8-3c-3.3-1.4-4-1.8-4.5-2.7c-0.7-1.2-0.6-2.5,0.3-3.5
			c0.9-1,2-1.4,4-1.4c1.4,0,4.5,0.8,4.8,1.2c0.4,0.7,0.6,0.1,0.6-1.5l-0.1-1.8l-1-0.4C381.1,173.3,376.9,173.3,375.3,173.7z"/>
		<path class="st0" d="M476.5,173.7c-1.6,0.5-3.1,1.5-4.3,2.8c-2.2,2.3-3,4.8-3,8.9c0,5.5,2.1,9.3,6,10.8c3,1.1,7.6,0.8,10.7-0.7
			l1.3-0.6v-1.7v-1.7l-1,0.6c-2.5,1.6-6,2.3-8.6,1.5c-2.6-0.8-4.3-3-4.8-6.4l-0.2-1.2h8h8l-0.1-2.6c-0.2-4.7-1.7-7.6-4.8-9.1
			c-1.5-0.7-1.9-0.8-3.9-0.9C478.3,173.3,477.1,173.4,476.5,173.7L476.5,173.7z M481.5,176.7c1.9,0.8,3,2.5,3.2,4.9l0.1,1.4h-6.1
			h-6.1l0.1-0.8c0.4-2.3,2.5-5,4.3-5.6C478.4,176.2,480.5,176.3,481.5,176.7z"/>
		<path class="st0" d="M225.5,185.1v11.3h1.7h1.7v-11.3v-11.3h-1.7h-1.7V185.1z"/>
		<path class="st0" d="M261.3,185.1v11.3h1.7h1.7v-11.3v-11.3H263h-1.7V185.1z"/>
		<path class="st0" d="M335.5,185.1v11.3h1.7h1.7v-11.3v-11.3h-1.7h-1.7V185.1z"/>
		<path class="st0" d="M404.8,185.1v11.3h1.7h1.7v-11.3v-11.3h-1.7h-1.7V185.1z"/>
		<path class="st0" d="M430,182.1c0.1,9.2,0.2,10,1.8,12.2c1.7,2.3,5.4,3.3,8.7,2.3c1.2-0.3,1.7-0.7,3-2l1.6-1.6v1.7v1.7h1.7h1.7
			v-11.3v-11.3h-1.7h-1.7v6.9c0,7.5-0.2,8.9-1.3,10.6c-2,2.9-6.1,3.5-8.5,1.1c-1.5-1.5-1.7-2.4-1.8-11l-0.1-7.6h-1.7h-1.7L430,182.1
			z"/>
	</g>
</g>
</svg>
